<mxfile host="app.diagrams.net" agent="Mozilla/5.0 (Windows NT 10.0; Win64; x64) AppleWebKit/537.36 (KHTML, like Gecko) Chrome/131.0.0.0 Safari/537.36" version="24.8.6">
  <diagram id="C5RBs43oDa-KdzZeNtuy" name="Page-1">
    <mxGraphModel dx="1434" dy="772" grid="1" gridSize="10" guides="1" tooltips="1" connect="1" arrows="1" fold="1" page="1" pageScale="1" pageWidth="827" pageHeight="1169" math="0" shadow="0">
      <root>
        <mxCell id="WIyWlLk6GJQsqaUBKTNV-0" />
        <mxCell id="WIyWlLk6GJQsqaUBKTNV-1" parent="WIyWlLk6GJQsqaUBKTNV-0" />
        <mxCell id="WIyWlLk6GJQsqaUBKTNV-2" value="" style="rounded=0;html=1;jettySize=auto;orthogonalLoop=1;fontSize=11;endArrow=block;endFill=0;endSize=8;strokeWidth=1;shadow=0;labelBackgroundColor=none;edgeStyle=orthogonalEdgeStyle;" parent="WIyWlLk6GJQsqaUBKTNV-1" edge="1">
          <mxGeometry relative="1" as="geometry">
            <mxPoint x="380" y="130" as="sourcePoint" />
            <mxPoint x="380" y="180" as="targetPoint" />
          </mxGeometry>
        </mxCell>
        <mxCell id="_HO3mWAkUT5hUePpAvCM-0" value="Start" style="ellipse;whiteSpace=wrap;html=1;" vertex="1" parent="WIyWlLk6GJQsqaUBKTNV-1">
          <mxGeometry x="320" y="50" width="120" height="80" as="geometry" />
        </mxCell>
        <mxCell id="_HO3mWAkUT5hUePpAvCM-3" style="edgeStyle=orthogonalEdgeStyle;rounded=0;orthogonalLoop=1;jettySize=auto;html=1;exitX=0.5;exitY=1;exitDx=0;exitDy=0;entryX=0.5;entryY=0;entryDx=0;entryDy=0;" edge="1" parent="WIyWlLk6GJQsqaUBKTNV-1" source="_HO3mWAkUT5hUePpAvCM-1" target="_HO3mWAkUT5hUePpAvCM-2">
          <mxGeometry relative="1" as="geometry" />
        </mxCell>
        <mxCell id="_HO3mWAkUT5hUePpAvCM-1" value="Nhập a,b" style="shape=parallelogram;perimeter=parallelogramPerimeter;whiteSpace=wrap;html=1;fixedSize=1;" vertex="1" parent="WIyWlLk6GJQsqaUBKTNV-1">
          <mxGeometry x="320" y="180" width="120" height="60" as="geometry" />
        </mxCell>
        <mxCell id="_HO3mWAkUT5hUePpAvCM-5" style="edgeStyle=orthogonalEdgeStyle;rounded=0;orthogonalLoop=1;jettySize=auto;html=1;exitX=0.5;exitY=1;exitDx=0;exitDy=0;entryX=0.5;entryY=0;entryDx=0;entryDy=0;" edge="1" parent="WIyWlLk6GJQsqaUBKTNV-1" source="_HO3mWAkUT5hUePpAvCM-2" target="_HO3mWAkUT5hUePpAvCM-4">
          <mxGeometry relative="1" as="geometry" />
        </mxCell>
        <mxCell id="_HO3mWAkUT5hUePpAvCM-2" value="Nhập phép toán&lt;div&gt;(+-*/)&lt;/div&gt;" style="shape=parallelogram;perimeter=parallelogramPerimeter;whiteSpace=wrap;html=1;fixedSize=1;" vertex="1" parent="WIyWlLk6GJQsqaUBKTNV-1">
          <mxGeometry x="320" y="280" width="120" height="60" as="geometry" />
        </mxCell>
        <mxCell id="_HO3mWAkUT5hUePpAvCM-10" style="edgeStyle=orthogonalEdgeStyle;rounded=0;orthogonalLoop=1;jettySize=auto;html=1;exitX=0.5;exitY=1;exitDx=0;exitDy=0;entryX=0.5;entryY=0;entryDx=0;entryDy=0;" edge="1" parent="WIyWlLk6GJQsqaUBKTNV-1" source="_HO3mWAkUT5hUePpAvCM-4" target="_HO3mWAkUT5hUePpAvCM-6">
          <mxGeometry relative="1" as="geometry" />
        </mxCell>
        <mxCell id="_HO3mWAkUT5hUePpAvCM-11" style="edgeStyle=orthogonalEdgeStyle;rounded=0;orthogonalLoop=1;jettySize=auto;html=1;exitX=0.5;exitY=1;exitDx=0;exitDy=0;" edge="1" parent="WIyWlLk6GJQsqaUBKTNV-1" source="_HO3mWAkUT5hUePpAvCM-4" target="_HO3mWAkUT5hUePpAvCM-7">
          <mxGeometry relative="1" as="geometry" />
        </mxCell>
        <mxCell id="_HO3mWAkUT5hUePpAvCM-12" style="edgeStyle=orthogonalEdgeStyle;rounded=0;orthogonalLoop=1;jettySize=auto;html=1;exitX=0.5;exitY=1;exitDx=0;exitDy=0;" edge="1" parent="WIyWlLk6GJQsqaUBKTNV-1" source="_HO3mWAkUT5hUePpAvCM-4" target="_HO3mWAkUT5hUePpAvCM-8">
          <mxGeometry relative="1" as="geometry" />
        </mxCell>
        <mxCell id="_HO3mWAkUT5hUePpAvCM-13" style="edgeStyle=orthogonalEdgeStyle;rounded=0;orthogonalLoop=1;jettySize=auto;html=1;exitX=0.5;exitY=1;exitDx=0;exitDy=0;" edge="1" parent="WIyWlLk6GJQsqaUBKTNV-1" source="_HO3mWAkUT5hUePpAvCM-4">
          <mxGeometry relative="1" as="geometry">
            <mxPoint x="690" y="510" as="targetPoint" />
          </mxGeometry>
        </mxCell>
        <mxCell id="_HO3mWAkUT5hUePpAvCM-4" value="Kiểm tra phép tính" style="rounded=0;whiteSpace=wrap;html=1;" vertex="1" parent="WIyWlLk6GJQsqaUBKTNV-1">
          <mxGeometry x="320" y="380" width="120" height="60" as="geometry" />
        </mxCell>
        <mxCell id="_HO3mWAkUT5hUePpAvCM-27" style="edgeStyle=orthogonalEdgeStyle;rounded=0;orthogonalLoop=1;jettySize=auto;html=1;entryX=0.5;entryY=0;entryDx=0;entryDy=0;" edge="1" parent="WIyWlLk6GJQsqaUBKTNV-1" source="_HO3mWAkUT5hUePpAvCM-6" target="_HO3mWAkUT5hUePpAvCM-22">
          <mxGeometry relative="1" as="geometry">
            <Array as="points">
              <mxPoint x="120" y="690" />
              <mxPoint x="354" y="690" />
            </Array>
          </mxGeometry>
        </mxCell>
        <mxCell id="_HO3mWAkUT5hUePpAvCM-6" value="Tính a+b" style="rounded=0;whiteSpace=wrap;html=1;" vertex="1" parent="WIyWlLk6GJQsqaUBKTNV-1">
          <mxGeometry x="60" y="510" width="120" height="60" as="geometry" />
        </mxCell>
        <mxCell id="_HO3mWAkUT5hUePpAvCM-26" style="edgeStyle=orthogonalEdgeStyle;rounded=0;orthogonalLoop=1;jettySize=auto;html=1;" edge="1" parent="WIyWlLk6GJQsqaUBKTNV-1" source="_HO3mWAkUT5hUePpAvCM-7">
          <mxGeometry relative="1" as="geometry">
            <mxPoint x="350" y="760" as="targetPoint" />
          </mxGeometry>
        </mxCell>
        <mxCell id="_HO3mWAkUT5hUePpAvCM-7" value="Tính a-b" style="rounded=0;whiteSpace=wrap;html=1;" vertex="1" parent="WIyWlLk6GJQsqaUBKTNV-1">
          <mxGeometry x="230" y="510" width="120" height="60" as="geometry" />
        </mxCell>
        <mxCell id="_HO3mWAkUT5hUePpAvCM-25" style="edgeStyle=orthogonalEdgeStyle;rounded=0;orthogonalLoop=1;jettySize=auto;html=1;entryX=0.5;entryY=0;entryDx=0;entryDy=0;" edge="1" parent="WIyWlLk6GJQsqaUBKTNV-1" source="_HO3mWAkUT5hUePpAvCM-8" target="_HO3mWAkUT5hUePpAvCM-22">
          <mxGeometry relative="1" as="geometry">
            <Array as="points">
              <mxPoint x="490" y="620" />
              <mxPoint x="354" y="620" />
            </Array>
          </mxGeometry>
        </mxCell>
        <mxCell id="_HO3mWAkUT5hUePpAvCM-8" value="Tính a*b" style="rounded=0;whiteSpace=wrap;html=1;" vertex="1" parent="WIyWlLk6GJQsqaUBKTNV-1">
          <mxGeometry x="430" y="510" width="120" height="60" as="geometry" />
        </mxCell>
        <mxCell id="_HO3mWAkUT5hUePpAvCM-15" style="edgeStyle=orthogonalEdgeStyle;rounded=0;orthogonalLoop=1;jettySize=auto;html=1;exitX=0.5;exitY=1;exitDx=0;exitDy=0;" edge="1" parent="WIyWlLk6GJQsqaUBKTNV-1" target="_HO3mWAkUT5hUePpAvCM-14">
          <mxGeometry relative="1" as="geometry">
            <mxPoint x="690" y="570" as="sourcePoint" />
          </mxGeometry>
        </mxCell>
        <mxCell id="_HO3mWAkUT5hUePpAvCM-30" style="edgeStyle=orthogonalEdgeStyle;rounded=0;orthogonalLoop=1;jettySize=auto;html=1;" edge="1" parent="WIyWlLk6GJQsqaUBKTNV-1" source="_HO3mWAkUT5hUePpAvCM-14">
          <mxGeometry relative="1" as="geometry">
            <mxPoint x="350" y="920" as="targetPoint" />
            <Array as="points">
              <mxPoint x="690" y="900" />
              <mxPoint x="351" y="900" />
            </Array>
          </mxGeometry>
        </mxCell>
        <mxCell id="_HO3mWAkUT5hUePpAvCM-14" value="Thông báo chia&amp;nbsp;&lt;div&gt;cho 0&lt;/div&gt;" style="shape=parallelogram;perimeter=parallelogramPerimeter;whiteSpace=wrap;html=1;fixedSize=1;" vertex="1" parent="WIyWlLk6GJQsqaUBKTNV-1">
          <mxGeometry x="630" y="630" width="120" height="60" as="geometry" />
        </mxCell>
        <mxCell id="_HO3mWAkUT5hUePpAvCM-20" style="edgeStyle=orthogonalEdgeStyle;rounded=0;orthogonalLoop=1;jettySize=auto;html=1;exitX=0;exitY=0.5;exitDx=0;exitDy=0;entryX=0.5;entryY=0;entryDx=0;entryDy=0;" edge="1" parent="WIyWlLk6GJQsqaUBKTNV-1" source="_HO3mWAkUT5hUePpAvCM-17" target="_HO3mWAkUT5hUePpAvCM-19">
          <mxGeometry relative="1" as="geometry">
            <Array as="points">
              <mxPoint x="650" y="620" />
              <mxPoint x="520" y="620" />
            </Array>
          </mxGeometry>
        </mxCell>
        <mxCell id="_HO3mWAkUT5hUePpAvCM-17" value="Kiểm tra&amp;nbsp;&lt;div&gt;b=0&lt;/div&gt;" style="rhombus;whiteSpace=wrap;html=1;" vertex="1" parent="WIyWlLk6GJQsqaUBKTNV-1">
          <mxGeometry x="650" y="505" width="80" height="80" as="geometry" />
        </mxCell>
        <mxCell id="_HO3mWAkUT5hUePpAvCM-18" value="True" style="text;html=1;align=center;verticalAlign=middle;whiteSpace=wrap;rounded=0;" vertex="1" parent="WIyWlLk6GJQsqaUBKTNV-1">
          <mxGeometry x="690" y="585" width="60" height="30" as="geometry" />
        </mxCell>
        <mxCell id="_HO3mWAkUT5hUePpAvCM-23" style="edgeStyle=orthogonalEdgeStyle;rounded=0;orthogonalLoop=1;jettySize=auto;html=1;exitX=0.5;exitY=1;exitDx=0;exitDy=0;entryX=0.5;entryY=0;entryDx=0;entryDy=0;" edge="1" parent="WIyWlLk6GJQsqaUBKTNV-1" source="_HO3mWAkUT5hUePpAvCM-19" target="_HO3mWAkUT5hUePpAvCM-22">
          <mxGeometry relative="1" as="geometry" />
        </mxCell>
        <mxCell id="_HO3mWAkUT5hUePpAvCM-19" value="Tính a/b" style="rounded=0;whiteSpace=wrap;html=1;" vertex="1" parent="WIyWlLk6GJQsqaUBKTNV-1">
          <mxGeometry x="460" y="640" width="120" height="60" as="geometry" />
        </mxCell>
        <mxCell id="_HO3mWAkUT5hUePpAvCM-21" value="False" style="text;html=1;align=center;verticalAlign=middle;whiteSpace=wrap;rounded=0;" vertex="1" parent="WIyWlLk6GJQsqaUBKTNV-1">
          <mxGeometry x="570" y="585" width="60" height="30" as="geometry" />
        </mxCell>
        <mxCell id="_HO3mWAkUT5hUePpAvCM-29" style="edgeStyle=orthogonalEdgeStyle;rounded=0;orthogonalLoop=1;jettySize=auto;html=1;" edge="1" parent="WIyWlLk6GJQsqaUBKTNV-1" source="_HO3mWAkUT5hUePpAvCM-22" target="_HO3mWAkUT5hUePpAvCM-28">
          <mxGeometry relative="1" as="geometry" />
        </mxCell>
        <mxCell id="_HO3mWAkUT5hUePpAvCM-22" value="In kết quả" style="shape=parallelogram;perimeter=parallelogramPerimeter;whiteSpace=wrap;html=1;fixedSize=1;" vertex="1" parent="WIyWlLk6GJQsqaUBKTNV-1">
          <mxGeometry x="294" y="760" width="120" height="60" as="geometry" />
        </mxCell>
        <mxCell id="_HO3mWAkUT5hUePpAvCM-28" value="End" style="ellipse;whiteSpace=wrap;html=1;" vertex="1" parent="WIyWlLk6GJQsqaUBKTNV-1">
          <mxGeometry x="294" y="920" width="120" height="80" as="geometry" />
        </mxCell>
      </root>
    </mxGraphModel>
  </diagram>
</mxfile>
